Coordinates
version=1
nRows=33
nColumns=38
inDegrees=no

Units are S.I. units (second, meters, Newtons, ...)
If the header above contains a line with 'inDegrees', this indicates whether rotational values are in degrees (yes) or radians (no).

endheader
time	pelvis_tilt	pelvis_list	pelvis_rotation	pelvis_tx	pelvis_ty	pelvis_tz	hip_flexion_r	hip_adduction_r	hip_rotation_r	knee_angle_r	ankle_angle_r	subtalar_angle_r	mtp_angle_r	hip_flexion_l	hip_adduction_l	hip_rotation_l	knee_angle_l	ankle_angle_l	subtalar_angle_l	mtp_angle_l	lumbar_extension	lumbar_bending	lumbar_rotation	arm_flex_r	arm_add_r	arm_rot_r	elbow_flex_r	pro_sup_r	wrist_flex_r	wrist_dev_r	arm_flex_l	arm_add_l	arm_rot_l	elbow_flex_l	pro_sup_l	wrist_flex_l	wrist_dev_l
0.52	-0.163181	-0.00216977	-0.135433	0.984432	1.04461	-0.332654	0.522759	0.139153	0.207168	-0.281652	0.209157	0.0188018	-3.29375e-06	-0.0444507	0.0494109	-0.0996534	-0.902507	-0.233804	0.0810289	-2.54376e-06	-0.0313076	0.0403058	-0.00273701	-0.771568	-0.226001	-0.250761	1.91999	1.88631	0.0750904	0.0825441	-0.506811	-0.255793	-0.0572337	2.25479	1.7525	0.1	0.0919909
0.53	-0.163009	-0.00298591	-0.132472	0.983571	1.03804	-0.332795	0.533543	0.144323	0.198186	-0.337175	0.175393	0.0188018	-3.29375e-06	-0.00783428	0.0269601	-0.122481	-1.01063	-0.216734	0.0810289	-2.54376e-06	-0.0332679	0.0429468	0.00337029	-0.758126	-0.235766	-0.248817	1.92264	1.88139	0.0750904	0.0825441	-0.506867	-0.255851	-0.052928	2.23116	1.76808	0.1	0.0919909
0.54	-0.162252	-0.0040818	-0.129472	0.982381	1.03069	-0.333015	0.543761	0.150473	0.191262	-0.398051	0.157066	0.0188018	-3.29375e-06	0.0304921	0.00475023	-0.142263	-1.11357	-0.196665	0.0810289	-2.54376e-06	-0.0366826	0.0457318	0.0102213	-0.739558	-0.246057	-0.244194	1.9192	1.87612	0.0750904	0.0825441	-0.505866	-0.255142	-0.0491787	2.20143	1.78656	0.1	0.0919909
0.55	-0.160874	-0.00545309	-0.126426	0.980879	1.02275	-0.333315	0.553195	0.15756	0.186371	-0.463838	0.154049	0.0188018	-3.29375e-06	0.0704935	-0.0171233	-0.158899	-1.21124	-0.173694	0.0810289	-2.54376e-06	-0.0415819	0.0486623	0.0177896	-0.715845	-0.256857	-0.236867	1.9097	1.87052	0.0750904	0.0825441	-0.503832	-0.253653	-0.0460054	2.16562	1.80787	0.1	0.0919909
0.56	-0.158765	-0.00707347	-0.123305	0.979117	1.01454	-0.333708	0.561197	0.165425	0.183449	-0.533168	0.165732	0.0188018	-3.29375e-06	0.112079	-0.038356	-0.172118	-1.3033	-0.148144	0.0810289	-2.54376e-06	-0.0480177	0.0517243	0.025992	-0.686963	-0.268117	-0.226779	1.89423	1.86475	0.0750904	0.0825441	-0.500854	-0.251348	-0.0434585	2.12391	1.83166	0.1	0.0919909
0.57	-0.155795	-0.00889196	-0.120054	0.977166	1.00648	-0.334204	0.566634	0.173708	0.182345	-0.603578	0.190671	0.0188018	-3.29375e-06	0.155101	-0.0583638	-0.181513	-1.38915	-0.120638	0.0810289	-2.54376e-06	-0.0560157	0.0548273	0.0346704	-0.652964	-0.279732	-0.213878	1.87315	1.85912	0.0750904	0.0825441	-0.497142	-0.248189	-0.0416088	2.07674	1.85716	0.1	0.0919909
0.58	-0.151935	-0.0107603	-0.116582	0.975075	0.998896	-0.334804	0.568057	0.181833	0.182825	-0.671737	0.226445	0.0188018	-3.29375e-06	0.199387	-0.0763312	-0.186683	-1.4679	-0.0920578	0.0810289	-2.54376e-06	-0.0654763	0.0577893	0.0436123	-0.614122	-0.291532	-0.198205	1.84723	1.85403	0.0750904	0.0825441	-0.493067	-0.244173	-0.0405155	2.02504	1.88306	0.1	0.0919909
0.59	-0.147304	-0.0124113	-0.112784	0.972874	0.991996	-0.335503	0.56402	0.189068	0.184619	-0.733972	0.269851	0.0188018	-3.29375e-06	0.244772	-0.0913473	-0.187425	-1.53843	-0.0634118	0.0810289	-2.54376e-06	-0.0760758	0.0603356	0.0526138	-0.571075	-0.303263	-0.180007	1.81784	1.84996	0.0750904	0.0825441	-0.489182	-0.239384	-0.0401875	1.97035	1.90755	0.1	0.0919909
0.6	-0.142213	-0.0134967	-0.108571	0.9706	0.985963	-0.336304	0.553372	0.194635	0.187483	-0.786866	0.317304	0.0188018	-3.29375e-06	0.291068	-0.102586	-0.183913	-1.59953	-0.0356755	0.0810289	-2.54376e-06	-0.0872521	0.0621128	0.0615566	-0.524937	-0.314579	-0.159849	1.78704	1.84733	0.0750904	0.0825441	-0.486197	-0.234036	-0.0405636	1.91488	1.92849	0.1	0.0919909
0.61	-0.137066	-0.0136489	-0.103901	0.96834	0.981006	-0.337202	0.535455	0.197818	0.191228	-0.82774	0.365247	0.0188018	-3.29375e-06	0.338022	-0.109473	-0.176776	-1.65004	-0.00966461	0.0810289	-2.54376e-06	-0.0982509	0.0627244	0.0704604	-0.477281	-0.325039	-0.138667	1.75749	1.84645	0.0750904	0.0825441	-0.48491	-0.228476	-0.0415223	1.86145	1.94363	0.1	0.0919909
0.62	-0.1323	-0.0125137	-0.0987901	0.966224	0.977321	-0.338176	0.510165	0.198051	0.195699	-0.854899	0.41041	0.0188018	-3.29375e-06	0.38526	-0.111784	-0.167072	-1.68891	0.0140353	0.0810289	-2.54376e-06	-0.108243	0.0617787	0.0794727	-0.430007	-0.33413	-0.117709	1.73218	1.8475	0.0750904	0.0825441	-0.486129	-0.223152	-0.0429295	1.81319	1.95107	0.1	0.0919909
0.63	-0.128314	-0.00981674	-0.0933035	0.964386	0.975032	-0.339192	0.477891	0.194963	0.200721	-0.867679	0.449922	0.0188018	-3.29375e-06	0.43226	-0.109668	-0.15616	-1.71537	0.0350915	0.0810289	-2.54376e-06	-0.116448	0.0589216	0.0887954	-0.38509	-0.341328	-0.0983577	1.71406	1.85056	0.0750904	0.0825441	-0.490578	-0.218537	-0.0446942	1.77324	1.94964	0.1	0.0919909
0.64	-0.125431	-0.0053921	-0.0875228	0.962942	0.974175	-0.340208	0.439392	0.188411	0.206018	-0.866346	0.481327	0.0188018	-3.29375e-06	0.478349	-0.103614	-0.14552	-1.72893	0.0534223	0.0810289	-2.54376e-06	-0.122242	0.0538894	0.0985808	-0.344291	-0.346177	-0.0818748	1.70551	1.85566	0.0750904	0.0825441	-0.498805	-0.215034	-0.0468143	1.7442	1.9392	0.1	0.0919909
0.65	-0.123871	0.000791952	-0.08151	0.961984	0.974714	-0.341186	0.395678	0.178494	0.211149	-0.85192	0.50255	0.0188018	-3.29375e-06	0.522735	-0.0943756	-0.136574	-1.72944	0.0691648	0.0810289	-2.54376e-06	-0.12524	0.04656	0.108839	-0.308902	-0.34837	-0.0691461	1.70804	1.86285	0.0750904	0.0825441	-0.5111	-0.212895	-0.049399	1.72781	1.92076	0.1	0.0919909
0.66	-0.123717	0.00861115	-0.0752762	0.961569	0.976566	-0.34209	0.347901	0.165538	0.215469	-0.825986	0.511867	0.0188018	-3.29375e-06	0.564578	-0.0828743	-0.130526	-1.71704	0.0826102	0.0810289	-2.54376e-06	-0.125316	0.0369841	0.119393	-0.279602	-0.347812	-0.0605049	1.72203	1.87219	0.0750904	0.0825441	-0.527433	-0.21218	-0.0526667	1.7246	1.89649	0.1	0.0919909
0.67	-0.124917	0.0177983	-0.0687661	0.961728	0.979617	-0.342895	0.297286	0.150056	0.218138	-0.790522	0.50792	0.0188018	-3.29375e-06	0.603058	-0.0700604	-0.128247	-1.69215	0.0941111	0.0810289	-2.54376e-06	-0.122602	0.0253873	0.12989	-0.256443	-0.344653	-0.0556835	1.74681	1.88371	0.0750904	0.0825441	-0.547435	-0.212747	-0.0569169	1.73385	1.86947	0.1	0.0919909
0.68	-0.127301	0.0279814	-0.0618636	0.962456	0.983726	-0.343591	0.245076	0.13268	0.218201	-0.747739	0.489777	0.0188018	-3.29375e-06	0.637448	-0.0567579	-0.130195	-1.65536	0.103987	0.0810289	-2.54376e-06	-0.117454	0.0121371	0.139861	-0.238953	-0.339282	-0.0538941	1.78084	1.89732	0.0750904	0.0825441	-0.570437	-0.214288	-0.0624702	1.75378	1.84314	0.1	0.0919909
0.69	-0.130616	0.0387494	-0.0544196	0.963722	0.988735	-0.344186	0.192479	0.114103	0.214735	-0.699935	0.457062	0.0188018	-3.29375e-06	0.667159	-0.0435241	-0.136348	-1.60737	0.112464	0.0810289	-2.54376e-06	-0.110381	-0.00229683	0.148812	-0.226313	-0.332284	-0.0540123	1.82205	1.91276	0.0750904	0.0825441	-0.595551	-0.216381	-0.0695836	1.78188	1.82062	0.1	0.0919909
0.7	-0.134598	0.0496958	-0.0462943	0.965462	0.994463	-0.344707	0.140621	0.0950334	0.207028	-0.64938	0.41008	0.0188018	-3.29375e-06	0.691774	-0.0305637	-0.14617	-1.54894	0.119652	0.0810289	-2.54376e-06	-0.101978	-0.0173824	0.156318	-0.21756	-0.32438	-0.0548056	1.8682	1.92957	0.0750904	0.0825441	-0.621781	-0.218553	-0.0783681	1.81529	1.80392	0.1	0.0919909
0.71	-0.139	0.0604231	-0.0373969	0.967591	1.00071	-0.345197	0.0905183	0.0761705	0.194766	-0.598234	0.349935	0.0188018	-3.29375e-06	0.711062	-0.0177281	-0.158598	-1.48088	0.125573	0.0810289	-2.54376e-06	-0.0928225	-0.0325541	0.162086	-0.211754	-0.316343	-0.055145	1.91712	1.94712	0.0750904	0.0825441	-0.64813	-0.220328	-0.088749	1.85125	1.79376	0.1	0.0919909
0.72	-0.143618	0.0705449	-0.027713	0.970019	1.00726	-0.345712	0.0430641	0.058195	0.178166	-0.548503	0.278579	0.0188018	-3.29375e-06	0.724987	-0.00460853	-0.172105	-1.404	0.130191	0.0810289	-2.54376e-06	-0.0834038	-0.0472232	0.16599	-0.208104	-0.308928	-0.0541567	1.96689	1.96473	0.0750904	0.0825441	-0.673695	-0.221265	-0.100478	1.8873	1.78964	0.1	0.0919909
0.73	-0.148304	0.0796796	-0.0173171	0.972661	1.01389	-0.346305	-0.000968369	0.0417561	0.158018	-0.502044	0.198772	0.0188018	-3.29375e-06	0.733694	0.00930449	-0.184832	-1.31923	0.133454	0.0810289	-2.54376e-06	-0.0740712	-0.0607906	0.168073	-0.206024	-0.302799	-0.0512967	2.01592	1.98174	0.0750904	0.0825441	-0.697724	-0.220983	-0.113185	1.92156	1.79027	0.1	0.0919909
0.74	-0.152968	0.0874526	-0.00637413	0.975428	1.02037	-0.347027	-0.0409192	0.0274544	0.135648	-0.460591	0.113952	0.0188018	-3.29375e-06	0.737491	0.0244321	-0.194817	-1.22766	0.135332	0.0810289	-2.54376e-06	-0.065028	-0.072673	0.168517	-0.205136	-0.29848	-0.0463501	2.06285	1.99768	0.0750904	0.0825441	-0.719655	-0.219186	-0.126445	1.95273	1.79413	0.1	0.0919909
0.75	-0.157567	0.0935191	0.00486456	0.978243	1.02651	-0.347907	-0.0762357	0.0158177	0.112783	-0.425786	0.0280171	0.0188018	-3.29375e-06	0.736812	0.0409374	-0.200278	-1.13058	0.135871	0.0810289	-2.54376e-06	-0.0563653	-0.0823512	0.167611	-0.205242	-0.296299	-0.0393776	2.10655	2.01218	0.0750904	0.0825441	-0.73911	-0.215686	-0.139843	1.98011	1.79976	0.1	0.0919909
0.76	-0.162038	0.0976014	0.0160727	0.981047	1.03211	-0.348937	-0.106473	0.00726815	0.0913582	-0.399187	-0.0549595	0.0188018	-3.29375e-06	0.732183	0.0586181	-0.199921	-1.02963	0.135234	0.0810289	-2.54376e-06	-0.0481242	-0.0894437	0.165701	-0.206264	-0.296353	-0.0306421	2.146	2.025	0.0750904	0.0825441	-0.755869	-0.210431	-0.153021	2.00351	1.80605	0.1	0.0919909
0.77	-0.166263	0.099534	0.0268701	0.983792	1.03704	-0.350076	-0.131307	0.002086	0.0732703	-0.382255	-0.131051	0.0188018	-3.29375e-06	0.724178	0.0768881	-0.193202	-0.926741	0.133736	0.0810289	-2.54376e-06	-0.0403793	-0.0937852	0.163152	-0.20818	-0.298484	-0.0205435	2.18026	2.03593	0.0750904	0.0825441	-0.769825	-0.20353	-0.165708	2.02313	1.81227	0.1	0.0919909
0.78	-0.170064	0.0993047	0.0368556	0.986432	1.04115	-0.351248	-0.150557	0.00038242	0.0601267	-0.376298	-0.196804	0.0188018	-3.29375e-06	0.713397	0.0948538	-0.180473	-0.824241	0.131822	0.0810289	-2.54376e-06	-0.0333012	-0.0954671	0.160309	-0.210995	-0.30229	-0.0095795	2.20849	2.04474	0.0750904	0.0825441	-0.780934	-0.195253	-0.177724	2.03944	1.81804	0.1	0.0919909
0.79	-0.173225	0.0970631	0.0456555	0.988919	1.04437	-0.352361	-0.164177	0.00209096	0.0530068	-0.382378	-0.249544	0.0188018	-3.29375e-06	0.700467	0.111463	-0.162955	-0.724738	0.129981	0.0810289	-2.54376e-06	-0.0271566	-0.0948175	0.157463	-0.214732	-0.307175	0.00166395	2.22994	2.05125	0.0750904	0.0825441	-0.789179	-0.186005	-0.188953	2.05303	1.82325	0.1	0.0919909
0.8	-0.175524	0.0930889	0.0529806	0.991213	1.04662	-0.353323	-0.172245	0.00697443	0.0522802	-0.401202	-0.28764	0.0188018	-3.29375e-06	0.686062	0.125692	-0.14253	-0.631047	0.128622	0.0810289	-2.54376e-06	-0.0222491	-0.0923257	0.154819	-0.219465	-0.312433	0.0125164	2.2441	2.0553	0.0750904	0.0825441	-0.794561	-0.176286	-0.199313	2.06448	1.828	0.1	0.0919909
0.81	-0.176777	0.0877409	0.0586759	0.993289	1.0479	-0.354039	-0.174924	0.0146313	0.0575109	-0.433018	-0.310672	0.0188018	-3.29375e-06	0.670906	0.136726	-0.121411	-0.546018	0.127924	0.0810289	-2.54376e-06	-0.018836	-0.088543	0.15248	-0.225336	-0.31735	0.0222454	2.25067	2.05678	0.0750904	0.0825441	-0.797096	-0.166628	-0.208716	2.07427	1.83249	0.1	0.0919909
0.82	-0.176878	0.0814129	0.0627424	0.99514	1.04822	-0.354461	-0.172436	0.0244973	0.0674787	-0.477565	-0.319465	0.0188018	-3.29375e-06	0.655754	0.144092	-0.101757	-0.472349	0.127753	0.0810289	-2.54376e-06	-0.0170704	-0.0840038	0.150424	-0.232545	-0.321303	0.0301103	2.24965	2.0557	0.0750904	0.0825441	-0.796825	-0.157537	-0.217059	2.08275	1.83688	0.1	0.0919909
0.83	-0.17582	0.0744973	0.065334	0.996769	1.04759	-0.354585	-0.165039	0.0358388	0.0803233	-0.534071	-0.315955	0.0188018	-3.29375e-06	0.641358	0.147729	-0.085324	-0.412403	0.127667	0.0810289	-2.54376e-06	-0.0169755	-0.0791803	0.148511	-0.241307	-0.323834	0.0354492	2.24131	2.05221	0.0750904	0.0825441	-0.793811	-0.149456	-0.22423	2.09008	1.84126	0.1	0.0919909
0.84	-0.173699	0.067377	0.0667351	0.998173	1.04602	-0.354443	-0.153023	0.0477578	0.0938014	-0.601277	-0.302889	0.0188018	-3.29375e-06	0.628435	0.147986	-0.0732052	-0.36808	0.127043	0.0810289	-2.54376e-06	-0.0184465	-0.0744684	0.146481	-0.251779	-0.324689	0.0377771	2.2261	2.04663	0.0750904	0.0825441	-0.788129	-0.14273	-0.230131	2.09623	1.84553	0.1	0.0919909
